<svg width="701" height="630" viewBox="0 0 701 630" fill="none" xmlns="http://www.w3.org/2000/svg">
<path fill-rule="evenodd" clip-rule="evenodd" d="M392.162 5.09721C458.51 21.8141 477.815 106.588 531.826 148.591C582.913 188.319 676.142 180.507 696.652 241.887C717.13 303.169 651.803 358.402 620.894 415.142C596.434 460.044 572.8 503.098 535.379 537.942C493.056 577.349 449.5 620.6 392.162 628.116C331.156 636.112 273.231 608.122 218.8 579.436C155.751 546.208 79.6623 517.235 54.9381 450.393C30.0439 383.091 71.2224 311.978 94.8011 244.203C117.833 178 135.281 106.366 189.907 62.4418C245.888 17.428 322.506 -12.4534 392.162 5.09721Z" fill="#4754EB"/>
<path fill-rule="evenodd" clip-rule="evenodd" d="M298.23 167.056C341.037 171.407 389.236 172.668 418.565 204.154C448.385 236.166 443.001 285.221 448.712 328.6C455.007 376.419 477.191 427.649 453.519 469.672C429.579 512.171 377.516 531.922 329.467 540.289C286.75 547.727 247.478 523.993 205.576 512.848C163.569 501.674 111.056 509.143 84.1172 475.027C57.1966 440.934 78.0757 391.545 75.5442 348.175C72.9908 304.43 44.2369 256.078 69.2365 220.09C94.2782 184.042 148.859 190.991 191.615 181.089C227.412 172.798 261.675 163.341 298.23 167.056Z" fill="#8633B0"/>
</svg>
