<svg width="640" height="640" viewBox="0 0 640 640" fill="none" xmlns="http://www.w3.org/2000/svg">
<path fill-rule="evenodd" clip-rule="evenodd" d="M25.2321 326.103C11.2937 256.24 -18.2527 180.907 15.768 117.988C50.9151 52.986 126.327 11.8901 200.734 1.52465C270.089 -8.13716 335.077 29.9115 395.176 65.1333C443.934 93.7087 472.292 141.27 510.073 182.816C553.426 230.491 617.112 264.088 632.493 326.103C649.595 395.058 637.446 472.262 596.362 530.732C554.797 589.886 485.394 631.189 412.488 639.206C345.271 646.598 287.719 600.667 227.08 571.341C176.332 546.798 124.002 525.656 88.4949 482.516C51.649 437.75 36.4872 382.517 25.2321 326.103Z" fill="white"/>
</svg>
