<svg width="789" height="732" viewBox="0 0 789 732" fill="none" xmlns="http://www.w3.org/2000/svg">
<g clip-path="url(#clip0_43_847)">
<path fill-rule="evenodd" clip-rule="evenodd" d="M567.701 684.662C642.353 656.179 728.126 630.581 765.801 560.325C804.106 488.893 771.273 404.179 761.004 324.195C749.683 236.024 765.223 134.083 702.943 70.7468C639.958 6.69339 537.33 -3.24036 447.275 5.14491C367.212 12.5998 308.057 73.8752 238.239 114.017C168.247 154.258 70.6174 166.405 38.4684 240.185C6.34143 313.916 67.0986 391.717 83.0602 470.146C99.1596 549.251 70.4873 649.253 132.294 701.202C194.204 753.238 288.725 714.425 370.021 711.337C438.085 708.752 503.953 708.986 567.701 684.662Z" fill="#4754EB"/>
<path fill-rule="evenodd" clip-rule="evenodd" d="M332.523 46.8985C278.927 96.4234 319.403 182.792 305.104 252.433C295.526 299.082 263.114 338.831 262.895 386.015C262.637 441.472 260.119 507.855 303.76 541.592C347.39 575.321 414.719 534.634 469.847 546.002C538.249 560.107 593.726 639.982 660.621 615.18C725.229 591.225 736.187 504.649 755.45 440.11C772.077 384.402 782.988 325.228 763.008 272.139C744.557 223.118 688.874 203.197 652.172 165.704C611.072 123.718 591.41 60.4445 535.403 39.628C471.6 15.9139 383.926 -0.59923 332.523 46.8985Z" fill="#8633B0"/>
</g>
<defs>
<clipPath id="clip0_43_847">
<rect width="789" height="732" fill="white"/>
</clipPath>
</defs>
</svg>
