<svg width="662" height="636" viewBox="0 0 662 636" fill="none" xmlns="http://www.w3.org/2000/svg">
<path fill-rule="evenodd" clip-rule="evenodd" d="M180.182 550.15C228.371 589.834 278.823 638.378 341.666 635.295C405.561 632.16 451.404 574.49 502.617 534.331C559.072 490.062 635.293 458.614 655.136 389.485C675.204 319.573 642.801 244.714 602.577 186.098C566.816 133.987 501.948 118.548 447.572 87.0171C393.06 55.4079 347.347 -6.87342 284.187 1.47711C221.07 9.82189 190.672 83.8842 142.709 127.324C94.3319 171.139 14.4251 192.73 2.25114 256.824C-9.94332 321.025 52.9645 370.135 86.1866 424.903C114.001 470.756 139.032 516.262 180.182 550.15Z" fill="white"/>
</svg>
